<svg width="16" height="16" viewBox="0 0 16 16" fill="none" xmlns="http://www.w3.org/2000/svg">
  <path fill-rule="evenodd" clip-rule="evenodd" d="M10.1333 4.26667H10.9333C12.1121 4.26667 13.0666 5.22123 13.0666 6.4C13.0666 7.57876 12.1121 8.53333 10.9333 8.53333H10.1333V9.6H10.9333C12.7007 9.6 14.1333 8.16731 14.1333 6.4C14.1333 4.63269 12.7007 3.2 10.9333 3.2H10.1333V4.26667ZM5.86665 11.7333H5.06665C3.88788 11.7333 2.93332 10.7788 2.93332 9.60001C2.93332 8.42125 3.88788 7.46668 5.06665 7.46668H5.86665V6.40001H5.06665C3.29934 6.40001 1.86665 7.8327 1.86665 9.60001C1.86665 11.3673 3.29934 12.8 5.06665 12.8H5.86665V11.7333ZM5.06665 8.53333H10.9333V7.46666H5.06665V8.53333Z" fill="currentColor"/>
</svg>
